/* XPM */
static char *d1a0ab24c96b4b8ad5e620bfa3e50d58h3uG63RLBZtMo6qq[] = {
/* columns rows colors chars-per-pixel */
"32 32 4 1 ",
"  c None",
". c #5B6986",
"X c #8B9BB5",
"o c #ECF0F1",
/* pixels */
"                                ",
"                                ",
"                                ",
"                                ",
"             oooooooo           ",
"           oooooooooooo         ",
"          ooooo....ooooo        ",
"         oooo........oooo       ",
"         oooo........oooo       ",
"         Xooooo....oooooo       ",
"         XXoooooooooooooo       ",
"         XXoooooooooooooo       ",
"       oooXXXXXXooooooooo       ",
"      oooooXXXooooooooooo       ",
"      ooooooooooooooooooo       ",
"      ooooooooooooooooooo       ",
"      ooooooooooooooooooo       ",
"      ooooooooooooooooooo       ",
"      ooooooooooooooooooo       ",
"      ooooooooooooooooooo       ",
"      ooooooooooooooooooo       ",
"      ooooooooooooooooooo       ",
"      oooooooooooooooooo        ",
"      ooooooooooooooooo         ",
"      ooooooooooooooo           ",
"      o  ooooooooo              ",
"          oooo                  ",
"                                ",
"                                ",
"                                ",
"                                ",
"                                "
};
