/* XPM */
static char *result[] = {
/* columns rows colors chars-per-pixel */
"32 32 7 1 ",
"  c #FDAE35",
". c #5B6986",
"X c #0099DC",
"o c #8B9BB5",
"O c #C0CCDC",
"+ c #ECF0F1",
"@ c None",
/* pixels */
"@@@@@@@@@@@@@@@@@@@@@@@@@@@@@@@@",
"@@@@@@@@@@@@@@@@@@@@@@@@@@@@@@@@",
"@@@@@@@@@@@@@@@@@@@@@@@@@@@@@@@@",
"@@@@@@@@@@@@@@@@@@@@@@@@@@@@@@@@",
"@@+++++++++++++++++++++++++++++@",
"@@XXXXXXXXXXXXXXXXXXXXXXXXXXXXX@",
"@@XXXXXXXXXXXXXXXXXXXXXXXXXXXXX@",
"@@XXXXXXXXXXXXXXXXXXXXXXXXXXXXX@",
"@@XXX...........OXXXXXXXOXOXXXX@",
"@@XXXOOOOOOOOOOOOXXXXXXXXXXXXXX@",
"@@XXXOOXXXXXXXXXXXOXXXXXXXXXXXX@",
"@@XXXOO++++++++++++XXXXXXXXXXXX@",
"@@XXXOO++++++++.............XXX@",
"@@XXXOO++ + + +.+++++++++++.XXX@",
"@@XXXOO++++++++.+.+.+.+.+++.XXX@",
"@@XXXOO++ + + +.+++++++++++.XXX@",
"@@XXXXX++++++++.............XXX@",
"@@XXXXX++ + + + +++XXXXXXXXXXXX@",
"@@XXXXX++++++++++++XXXXXXXXXXXX@",
"@@XXXXXXXXXXXXXXXXXXXXXXXXXXXXX@",
"@@XXXOXOXXXXXXXXXXXXXXXXXXOXXXX@",
"@@XXXXXXXXXXXXXXXXXXXXXXXXXXXXX@",
"@@XXXXXXXXXXXXXXXXXXXXXXXXXXXXX@",
"@@+++++++++++++++++++++++++++++@",
"@@++++++++++++++o++++++++++++++@",
"@@+++++++++++++++++++++++++++++@",
"@@@@@@@@@@@@ooooooooo@@@@@@@@@@@",
"@@@@@@@@@@@@ooooooooo@@@@@@@@@@@",
"@@@@@@@@@@@@+++++++++@@@@@@@@@@@",
"@@@@@@@@@@@@@@@@@@@@@@@@@@@@@@@@",
"@@@@@@@@@@@@@@@@@@@@@@@@@@@@@@@@",
"@@@@@@@@@@@@@@@@@@@@@@@@@@@@@@@@"
};
