/* XPM */
static char *f0a425fef5a44cd2a45268e20362822fy2KdSPxj79N1lfh5[] = {
/* columns rows colors chars-per-pixel */
"32 32 4 1 ",
"  c #193C3E",
". c #265C42",
"X c #3E8948",
"o c #63C74D",
/* pixels */
"         X  .  X  ..    XX...   ",
".   X . X  .  .X....X .XX...   X",
" . X  ..X.. .X X .......X...  X ",
"XXX .....X..XoX....X...X....X ..",
"  X . .....XoX..X...XXXX...X .X.",
". X........XX .....X.XoX... oXX.",
".. X ... .X. .  .X..XXoX.X o.X..",
"...X  ....... .X...X.oX... o.X..",
"....X..X.. . .. .X..XX....oXX...",
"..X .XX    X. X......X...oX.X...",
"...XXX   .... ..XX...X..o..XXX..",
"X.... X.XX.. ...XXX...X.XooXXXXX",
".X.X...oXXX.o.....XX....oXX..X.X",
"X.XXX.oXXXXXXoo...XX...o  XX XXX",
"oXX.X.XXX.XXXXXo..oXX.o   X . ..",
".XXXXXX.XX.X.XXXooXXXo . .X.... ",
".XXX.oX.X...X..XXX..oX...X.... .",
"..X  o.........  X  .....XXoo...",
"...  Xo.X....X..X. .X..X.X  ..X.",
".. . oXX......XX  X....XX  .X..X",
".   .o.X......X X . X...X . X...",
".. . X.......X..   XX.oXX.  ....",
"X .. o......X.  . ..Xo....X.... ",
".X .o. ...X.     ...Xo. XX......",
".. .X..X...XX  ....XXoX.......  ",
"..X X.X .... X   ..XoX.....X   .",
"...X X .. .   X . . .X X..X   ..",
"... ..X .      X .. X. .. .   . ",
".X X...X.. .  . XX.X ...X.XX . .",
". X.....X    . X  XX  . . X.X...",
"X. X.. . .. . X .....  . X...   ",
" .  X . .X .  .X......  X...    "
};
