/* XPM */
static char *_1efa0e3957042778dd5d94c88a9e6c9iT9oXkEK6GPt2AeP[] = {
/* columns rows colors chars-per-pixel */
"32 32 13 1 ",
"  c None",
". c #3E2731",
"X c #733E39",
"o c #BE4A2F",
"O c #F77622",
"+ c #D77643",
"@ c #FEAE34",
"# c #E4A672",
"$ c #5A6988",
"% c #8B9BB4",
"& c #EAD4AA",
"* c #C0CBDC",
"= c #ECF0F1",
/* pixels */
"                                ",
"                                ",
"                                ",
"       ooooooooXXXXX            ",
"       XXXXXXXX.....            ",
"       ooooooooXXXXX            ",
"        @@@@@@@@@...            ",
"        @@@@@@@@@XXX            ",
"        @@@@@@@@@OXOO           ",
"        @@X@@@X@@OXOO           ",
"        @@X@+@X@@OOX            ",
"        @@X@+@X@@OOO            ",
"       @@@@@@@@@OO%$$$          ",
"       ==&=&=&==#O%$$$ ==*%     ",
"       ==&=&=&==#O%$$$====*%    ",
"          $$$$$$$$%$$$$===*%    ",
"          $%%%%%%$%$$$$===*%    ",
"         $$$@@OOO$$$$$$===*%    ",
"         $$$@OOOO$$$$$$$==*%    ",
"         $$$@@OOO$$$$$$$%%*%    ",
"         $$$@OOOO$$$$$$$%%*%    ",
"      @@@@@@@@@@@@@@@OOOO%*%    ",
"      @@@O@@@OOOOOOOOOOOO%*%    ",
"      @@@O@@@OOOOOOOOOOOO%*%    ",
"      @@@O@@@OO$$$$$$$$$$$$$$   ",
"      @@@O@@@OO***==========    ",
"     ========***************    ",
"      ********* ************    ",
"      *********  ***********    ",
"   %%%$$%%%$$$$   *********     ",
"                                ",
"                                "
};
