/* XPM */
static char *_683f84e3efa4a9de390888efc4879a33OzIBaSnVsSuj5BU[] = {
/* columns rows colors chars-per-pixel */
"32 32 13 1 ",
"  c None",
". c #3E2731",
"X c #733E39",
"o c #BE4A2F",
"O c #F77622",
"+ c #D77643",
"@ c #FEAE34",
"# c #E4A672",
"$ c #5A6988",
"% c #8B9BB4",
"& c #EAD4AA",
"* c #C0CBDC",
"= c #ECF0F1",
/* pixels */
"                                ",
"                                ",
"                                ",
"            XXXXXoooooooo       ",
"            .....XXXXXXXX       ",
"            XXXXXoooooooo       ",
"            ...@@@@@@@@@        ",
"            XXX@@@@@@@@@        ",
"           OOXO@@@@@@@@@        ",
"           OOXO@@X@@@X@@        ",
"            XOO@@X@+@X@@        ",
"            OOO@@X@+@X@@        ",
"          $$$%OO@@@@@@@@@       ",
"     %*== $$$%O#==&=&=&==       ",
"    %*====$$$%O#==&=&=&==       ",
"    %*===$$$$%$$$$$$$$          ",
"    %*===$$$$%$%%%%%%$          ",
"    %*===$$$$$$OOO@@$$$         ",
"    %*==$$$$$$$OOOO@$$$         ",
"    %*%%$$$$$$$OOO@@$$$         ",
"    %*%%$$$$$$$OOOO@$$$         ",
"    %*%OOOO@@@@@@@@@@@@@@@      ",
"    %*%OOOOOOOOOOOO@@@O@@@      ",
"    %*%OOOOOOOOOOOO@@@O@@@      ",
"   $$$$$$$$$$$$$$OO@@@O@@@      ",
"    ==========***OO@@@O@@@      ",
"    ***************========     ",
"    ************ *********      ",
"    ***********  *********      ",
"     *********   $$$$%%%$$%%%   ",
"                                ",
"                                "
};
